<svg xmlns="http://www.w3.org/2000/svg" viewBox="0 0 120 120" width="100%" height="100%">
  <defs>
    <linearGradient id="weMoveDirectSportsGrad" x1="0%" y1="100%" x2="100%" y2="0%">
      <stop offset="0%" stop-color="#0f172a" />
      <stop offset="45%" stop-color="#1d4ed8" />
      <stop offset="75%" stop-color="#3b82f6" />
      <stop offset="100%" stop-color="#06b6d4" />
    </linearGradient>
  </defs>

  <g transform="matrix(1, 0, -0.21, 1, 18, 5)">

    <path d="M 10 98 C 35 106, 75 104, 102 82"
          fill="none"
          stroke="url(#weMoveDirectSportsGrad)"
          stroke-width="7"
          stroke-linecap="round" />

    <path d="M 5 88 C 20 94, 45 96, 65 90"
          fill="none"
          stroke="url(#weMoveDirectSportsGrad)"
          stroke-width="3"
          stroke-linecap="round"
          opacity="0.5" />

    <path d="M 16 68 C 14 52, 28 48, 38 65"
          fill="none"
          stroke="url(#weMoveDirectSportsGrad)"
          stroke-width="11"
          stroke-linecap="round"
          stroke-linejoin="round" />

    <path d="M 38 65 C 44 84, 56 84, 62 52"
          fill="none"
          stroke="url(#weMoveDirectSportsGrad)"
          stroke-width="11"
          stroke-linecap="round"
          stroke-linejoin="round" />

    <path d="M 62 52 C 68 76, 84 78, 96 56"
          fill="none"
          stroke="url(#weMoveDirectSportsGrad)"
          stroke-width="11"
          stroke-linecap="round"
          stroke-linejoin="round" />

    <circle cx="32" cy="36" r="8" fill="url(#weMoveDirectSportsGrad)" />

    <circle cx="58" cy="26" r="9" fill="url(#weMoveDirectSportsGrad)" />

    <circle cx="86" cy="34" r="8" fill="url(#weMoveDirectSportsGrad)" />

    <circle cx="104" cy="44" r="4" fill="#06b6d4" />
  </g>
</svg>
