<?xml version="1.0" encoding="UTF-8"?>
<svg xmlns="http://www.w3.org/2000/svg" width="430" height="932" viewBox="0 0 430 932" fill="none">
  <title>WeMove 모바일 모임찾기</title>
  <defs>
    <linearGradient id="primaryButton" x1="0" y1="0" x2="0" y2="1">
      <stop offset="0%" stop-color="#3b82f6"/>
      <stop offset="100%" stop-color="#2563eb"/>
    </linearGradient>
    <linearGradient id="heroOverlay" x1="0" y1="0" x2="1" y2="1">
      <stop offset="0%" stop-color="#10213e"/>
      <stop offset="100%" stop-color="#2563eb"/>
    </linearGradient>
  </defs>
  <rect width="430" height="932" fill="#f6f7f8"/>
  <rect x="16" y="16" width="398" height="74" rx="22" fill="#fff" stroke="#e5e7eb"/>
<rect x="28" y="34" width="40" height="40" rx="20" fill="#2563eb" stroke="#2563eb"/>
<text x="48" y="60" font-family="Pretendard, Apple SD Gothic Neo, sans-serif" font-size="18" font-weight="800" fill="#fff" text-anchor="middle"><tspan x="48" dy="0">W</tspan></text>
<text x="80" y="60" font-family="Pretendard, Apple SD Gothic Neo, sans-serif" font-size="24" font-weight="800" fill="#111827" text-anchor="start"><tspan x="80" dy="0">WeMove</tspan></text>
<rect x="28" y="102" width="386" height="48" rx="16" fill="#fff" stroke="#e5e7eb"/>
<text x="56" y="132" font-family="Pretendard, Apple SD Gothic Neo, sans-serif" font-size="14" font-weight="500" fill="#8b95a1" text-anchor="start"><tspan x="56" dy="0">모임, 지역, 운동 종목을 검색해보세요</tspan></text>
<rect x="290" y="34" width="58" height="34" rx="14" fill="#ffffff" stroke="#e5e7eb"/>
<text x="319" y="56" font-family="Pretendard, Apple SD Gothic Neo, sans-serif" font-size="14" font-weight="700" fill="#111827" text-anchor="middle"><tspan x="319" dy="0">로그인</tspan></text>
<rect x="356" y="34" width="58" height="34" rx="14" fill="url(#primaryButton)" stroke="#2563eb"/>
<text x="385" y="56" font-family="Pretendard, Apple SD Gothic Neo, sans-serif" font-size="14" font-weight="700" fill="#fff" text-anchor="middle"><tspan x="385" dy="0">가입</tspan></text>
<text x="16" y="186" font-family="Pretendard, Apple SD Gothic Neo, sans-serif" font-size="28" font-weight="800" fill="#111827" text-anchor="start"><tspan x="16" dy="0">모임 찾기</tspan></text>
<text x="16" y="214" font-family="Pretendard, Apple SD Gothic Neo, sans-serif" font-size="14" font-weight="500" fill="#6b7280" text-anchor="start"><tspan x="16" dy="0">지역과 운동 종목을 기준으로 지금 참여할 수 있는 모임을 빠르게 골라보세요.</tspan></text>
<rect x="16" y="234" width="398" height="146" rx="22" fill="url(#heroOverlay)" stroke="transparent"/>
<text x="34" y="282" font-family="Pretendard, Apple SD Gothic Neo, sans-serif" font-size="26" font-weight="800" fill="#fff" text-anchor="start"><tspan x="34" dy="0">이번 주말, 동네에서 같이</tspan><tspan x="34" dy="34">운동할 사람을 찾아보세요.</tspan></text>
<rect x="292" y="328" width="104" height="38" rx="14" fill="url(#primaryButton)" stroke="#2563eb"/>
<text x="344" y="352" font-family="Pretendard, Apple SD Gothic Neo, sans-serif" font-size="14" font-weight="700" fill="#fff" text-anchor="middle"><tspan x="344" dy="0">모임 만들기</tspan></text>
<rect x="16" y="396" width="398" height="122" rx="18" fill="#fff" stroke="#e5e7eb"/>
<rect x="30" y="414" width="54" height="32" rx="999" fill="#eff6ff" stroke="#bfdbfe"/>
<text x="57" y="435" font-family="Pretendard, Apple SD Gothic Neo, sans-serif" font-size="12" font-weight="700" fill="#2563eb" text-anchor="middle"><tspan x="57" dy="0">전체</tspan></text>
<rect x="92" y="414" width="54" height="32" rx="999" fill="#fff" stroke="#e5e7eb"/>
<text x="119" y="435" font-family="Pretendard, Apple SD Gothic Neo, sans-serif" font-size="12" font-weight="700" fill="#6b7280" text-anchor="middle"><tspan x="119" dy="0">러닝</tspan></text>
<rect x="154" y="414" width="54" height="32" rx="999" fill="#fff" stroke="#e5e7eb"/>
<text x="181" y="435" font-family="Pretendard, Apple SD Gothic Neo, sans-serif" font-size="12" font-weight="700" fill="#6b7280" text-anchor="middle"><tspan x="181" dy="0">헬스</tspan></text>
<rect x="216" y="414" width="54" height="32" rx="999" fill="#fff" stroke="#e5e7eb"/>
<text x="243" y="435" font-family="Pretendard, Apple SD Gothic Neo, sans-serif" font-size="12" font-weight="700" fill="#6b7280" text-anchor="middle"><tspan x="243" dy="0">풋살</tspan></text>
<rect x="278" y="414" width="54" height="32" rx="999" fill="#fff" stroke="#e5e7eb"/>
<text x="305" y="435" font-family="Pretendard, Apple SD Gothic Neo, sans-serif" font-size="12" font-weight="700" fill="#6b7280" text-anchor="middle"><tspan x="305" dy="0">농구</tspan></text>

<rect x="30" y="456" width="170" height="42" rx="14" fill="#fff" stroke="#e5e7eb"/>
<text x="44" y="482" font-family="Pretendard, Apple SD Gothic Neo, sans-serif" font-size="14" font-weight="500" fill="#8b95a1" text-anchor="start"><tspan x="44" dy="0">전체 지역</tspan></text>

<rect x="208" y="456" width="188" height="42" rx="14" fill="#fff" stroke="#e5e7eb"/>
<text x="222" y="482" font-family="Pretendard, Apple SD Gothic Neo, sans-serif" font-size="14" font-weight="500" fill="#8b95a1" text-anchor="start"><tspan x="222" dy="0">전체 상태</tspan></text>
<text x="16" y="556" font-family="Pretendard, Apple SD Gothic Neo, sans-serif" font-size="24" font-weight="800" fill="#111827" text-anchor="start"><tspan x="16" dy="0">파주시 주변 모임</tspan></text>
<rect x="16" y="592" width="398" height="152" rx="18" fill="#fff" stroke="#e5e7eb"/>
<rect x="30" y="610" width="94" height="94" rx="16" fill="#eef2f7" stroke="#e5e7eb"/>
<rect x="138" y="610" width="52" height="26" rx="999" fill="#eff6ff" stroke="#eff6ff"/>
<text x="164" y="628" font-family="Pretendard, Apple SD Gothic Neo, sans-serif" font-size="11" font-weight="700" fill="#2563eb" text-anchor="middle"><tspan x="164" dy="0">러닝</tspan></text>
<rect x="196" y="610" width="52" height="26" rx="999" fill="#ecfdf3" stroke="#ecfdf3"/>
<text x="222" y="628" font-family="Pretendard, Apple SD Gothic Neo, sans-serif" font-size="11" font-weight="700" fill="#15803d" text-anchor="middle"><tspan x="222" dy="0">모집중</tspan></text>
<text x="138" y="652" font-family="Pretendard, Apple SD Gothic Neo, sans-serif" font-size="18" font-weight="800" fill="#111827" text-anchor="start"><tspan x="138" dy="0">야당역 5km 러닝 크루 모집</tspan></text>
<text x="138" y="682" font-family="Pretendard, Apple SD Gothic Neo, sans-serif" font-size="13" font-weight="500" fill="#6b7280" text-anchor="start"><tspan x="138" dy="0">퇴근 후 가볍게 뛰는 5km 러닝 모임입니다.</tspan></text>
<text x="138" y="708" font-family="Pretendard, Apple SD Gothic Neo, sans-serif" font-size="12" font-weight="500" fill="#8b95a1" text-anchor="start"><tspan x="138" dy="0">야당역 2번 출구 · 05.16 20:00</tspan></text>
<rect x="302" y="694" width="90" height="36" rx="14" fill="url(#primaryButton)" stroke="#2563eb"/>
<text x="347" y="717" font-family="Pretendard, Apple SD Gothic Neo, sans-serif" font-size="14" font-weight="700" fill="#fff" text-anchor="middle"><tspan x="347" dy="0">참가 신청</tspan></text>
<rect x="16" y="758" width="398" height="152" rx="18" fill="#fff" stroke="#e5e7eb"/>
<rect x="30" y="776" width="94" height="94" rx="16" fill="#eef2f7" stroke="#e5e7eb"/>
<rect x="138" y="776" width="52" height="26" rx="999" fill="#eff6ff" stroke="#eff6ff"/>
<text x="164" y="794" font-family="Pretendard, Apple SD Gothic Neo, sans-serif" font-size="11" font-weight="700" fill="#2563eb" text-anchor="middle"><tspan x="164" dy="0">풋살</tspan></text>
<rect x="196" y="776" width="52" height="26" rx="999" fill="#ecfdf3" stroke="#ecfdf3"/>
<text x="222" y="794" font-family="Pretendard, Apple SD Gothic Neo, sans-serif" font-size="11" font-weight="700" fill="#15803d" text-anchor="middle"><tspan x="222" dy="0">모집중</tspan></text>
<text x="138" y="818" font-family="Pretendard, Apple SD Gothic Neo, sans-serif" font-size="18" font-weight="800" fill="#111827" text-anchor="start"><tspan x="138" dy="0">운정 풋살장 저녁 경기</tspan></text>
<text x="138" y="848" font-family="Pretendard, Apple SD Gothic Neo, sans-serif" font-size="13" font-weight="500" fill="#6b7280" text-anchor="start"><tspan x="138" dy="0">친목 위주 풋살 경기입니다.</tspan></text>
<text x="138" y="874" font-family="Pretendard, Apple SD Gothic Neo, sans-serif" font-size="12" font-weight="500" fill="#8b95a1" text-anchor="start"><tspan x="138" dy="0">운정 스포츠파크 · 05.17 18:30</tspan></text>
<rect x="302" y="860" width="90" height="36" rx="14" fill="url(#primaryButton)" stroke="#2563eb"/>
<text x="347" y="883" font-family="Pretendard, Apple SD Gothic Neo, sans-serif" font-size="14" font-weight="700" fill="#fff" text-anchor="middle"><tspan x="347" dy="0">참가 신청</tspan></text>
</svg>