<?xml version="1.0" encoding="UTF-8"?>
<svg xmlns="http://www.w3.org/2000/svg" width="430" height="932" viewBox="0 0 430 932" fill="none">
  <title>WeMove 모바일 모임 만들기</title>
  <defs>
    <linearGradient id="primaryButton" x1="0" y1="0" x2="0" y2="1">
      <stop offset="0%" stop-color="#3b82f6"/>
      <stop offset="100%" stop-color="#2563eb"/>
    </linearGradient>
    <linearGradient id="heroOverlay" x1="0" y1="0" x2="1" y2="1">
      <stop offset="0%" stop-color="#10213e"/>
      <stop offset="100%" stop-color="#2563eb"/>
    </linearGradient>
  </defs>
  <rect width="430" height="932" fill="#f6f7f8"/>
  <rect x="16" y="16" width="398" height="74" rx="22" fill="#fff" stroke="#e5e7eb"/>
<rect x="28" y="34" width="40" height="40" rx="20" fill="#2563eb" stroke="#2563eb"/>
<text x="48" y="60" font-family="Pretendard, Apple SD Gothic Neo, sans-serif" font-size="18" font-weight="800" fill="#fff" text-anchor="middle"><tspan x="48" dy="0">W</tspan></text>
<text x="80" y="60" font-family="Pretendard, Apple SD Gothic Neo, sans-serif" font-size="24" font-weight="800" fill="#111827" text-anchor="start"><tspan x="80" dy="0">WeMove</tspan></text>
<rect x="28" y="102" width="386" height="48" rx="16" fill="#fff" stroke="#e5e7eb"/>
<text x="56" y="132" font-family="Pretendard, Apple SD Gothic Neo, sans-serif" font-size="14" font-weight="500" fill="#8b95a1" text-anchor="start"><tspan x="56" dy="0">모임, 지역, 운동 종목을 검색해보세요</tspan></text>
<rect x="290" y="34" width="58" height="34" rx="14" fill="#ffffff" stroke="#e5e7eb"/>
<text x="319" y="56" font-family="Pretendard, Apple SD Gothic Neo, sans-serif" font-size="14" font-weight="700" fill="#111827" text-anchor="middle"><tspan x="319" dy="0">로그인</tspan></text>
<rect x="356" y="34" width="58" height="34" rx="14" fill="url(#primaryButton)" stroke="#2563eb"/>
<text x="385" y="56" font-family="Pretendard, Apple SD Gothic Neo, sans-serif" font-size="14" font-weight="700" fill="#fff" text-anchor="middle"><tspan x="385" dy="0">가입</tspan></text>
<text x="16" y="186" font-family="Pretendard, Apple SD Gothic Neo, sans-serif" font-size="28" font-weight="800" fill="#111827" text-anchor="start"><tspan x="16" dy="0">모임 만들기</tspan></text>
<rect x="16" y="214" width="398" height="680" rx="20" fill="#fff" stroke="#e5e7eb"/>
<rect x="34" y="238" width="362" height="120" rx="16" fill="#f9fafb" stroke="#e5e7eb"/>
<text x="130" y="306" font-family="Pretendard, Apple SD Gothic Neo, sans-serif" font-size="16" font-weight="700" fill="#6b7280" text-anchor="middle"><tspan x="130" dy="0">대표 이미지 업로드</tspan></text>

<rect x="34" y="390" width="362" height="42" rx="14" fill="#fff" stroke="#e5e7eb"/>
<text x="48" y="416" font-family="Pretendard, Apple SD Gothic Neo, sans-serif" font-size="14" font-weight="500" fill="#8b95a1" text-anchor="start"><tspan x="48" dy="0">모임 제목</tspan></text>

<rect x="34" y="452" width="362" height="42" rx="14" fill="#fff" stroke="#e5e7eb"/>
<text x="48" y="478" font-family="Pretendard, Apple SD Gothic Neo, sans-serif" font-size="14" font-weight="500" fill="#8b95a1" text-anchor="start"><tspan x="48" dy="0">운동 종목</tspan></text>

<rect x="34" y="514" width="362" height="42" rx="14" fill="#fff" stroke="#e5e7eb"/>
<text x="48" y="540" font-family="Pretendard, Apple SD Gothic Neo, sans-serif" font-size="14" font-weight="500" fill="#8b95a1" text-anchor="start"><tspan x="48" dy="0">지역</tspan></text>

<rect x="34" y="576" width="362" height="42" rx="14" fill="#fff" stroke="#e5e7eb"/>
<text x="48" y="602" font-family="Pretendard, Apple SD Gothic Neo, sans-serif" font-size="14" font-weight="500" fill="#8b95a1" text-anchor="start"><tspan x="48" dy="0">장소명</tspan></text>

<rect x="34" y="638" width="362" height="42" rx="14" fill="#fff" stroke="#e5e7eb"/>
<text x="48" y="664" font-family="Pretendard, Apple SD Gothic Neo, sans-serif" font-size="14" font-weight="500" fill="#8b95a1" text-anchor="start"><tspan x="48" dy="0">날짜</tspan></text>

<rect x="34" y="700" width="362" height="42" rx="14" fill="#fff" stroke="#e5e7eb"/>
<text x="48" y="726" font-family="Pretendard, Apple SD Gothic Neo, sans-serif" font-size="14" font-weight="500" fill="#8b95a1" text-anchor="start"><tspan x="48" dy="0">시간</tspan></text>

<rect x="34" y="762" width="362" height="42" rx="14" fill="#fff" stroke="#e5e7eb"/>
<text x="48" y="788" font-family="Pretendard, Apple SD Gothic Neo, sans-serif" font-size="14" font-weight="500" fill="#8b95a1" text-anchor="start"><tspan x="48" dy="0">최대 인원</tspan></text>

<rect x="34" y="824" width="362" height="58" rx="14" fill="#fff" stroke="#e5e7eb"/>
<text x="48" y="858" font-family="Pretendard, Apple SD Gothic Neo, sans-serif" font-size="14" font-weight="500" fill="#8b95a1" text-anchor="start"><tspan x="48" dy="0">준비물</tspan></text>

<rect x="34" y="900" width="362" height="58" rx="14" fill="#fff" stroke="#e5e7eb"/>
<text x="48" y="934" font-family="Pretendard, Apple SD Gothic Neo, sans-serif" font-size="14" font-weight="500" fill="#8b95a1" text-anchor="start"><tspan x="48" dy="0">진행 안내</tspan></text>
<rect x="214" y="840" width="84" height="42" rx="14" fill="url(#primaryButton)" stroke="#2563eb"/>
<text x="256" y="866" font-family="Pretendard, Apple SD Gothic Neo, sans-serif" font-size="14" font-weight="700" fill="#fff" text-anchor="middle"><tspan x="256" dy="0">등록</tspan></text>
<rect x="306" y="840" width="90" height="42" rx="14" fill="#ffffff" stroke="#e5e7eb"/>
<text x="351" y="866" font-family="Pretendard, Apple SD Gothic Neo, sans-serif" font-size="14" font-weight="700" fill="#111827" text-anchor="middle"><tspan x="351" dy="0">취소</tspan></text>
</svg>