<?xml version="1.0" encoding="UTF-8"?>
<svg xmlns="http://www.w3.org/2000/svg" width="430" height="932" viewBox="0 0 430 932" fill="none">
  <title>WeMove 모바일 신청자관리</title>
  <defs>
    <linearGradient id="primaryButton" x1="0" y1="0" x2="0" y2="1">
      <stop offset="0%" stop-color="#3b82f6"/>
      <stop offset="100%" stop-color="#2563eb"/>
    </linearGradient>
    <linearGradient id="heroOverlay" x1="0" y1="0" x2="1" y2="1">
      <stop offset="0%" stop-color="#10213e"/>
      <stop offset="100%" stop-color="#2563eb"/>
    </linearGradient>
  </defs>
  <rect width="430" height="932" fill="#f6f7f8"/>
  <rect x="16" y="16" width="398" height="74" rx="22" fill="#fff" stroke="#e5e7eb"/>
<rect x="28" y="34" width="40" height="40" rx="20" fill="#2563eb" stroke="#2563eb"/>
<text x="48" y="60" font-family="Pretendard, Apple SD Gothic Neo, sans-serif" font-size="18" font-weight="800" fill="#fff" text-anchor="middle"><tspan x="48" dy="0">W</tspan></text>
<text x="80" y="60" font-family="Pretendard, Apple SD Gothic Neo, sans-serif" font-size="24" font-weight="800" fill="#111827" text-anchor="start"><tspan x="80" dy="0">WeMove</tspan></text>
<rect x="28" y="102" width="386" height="48" rx="16" fill="#fff" stroke="#e5e7eb"/>
<text x="56" y="132" font-family="Pretendard, Apple SD Gothic Neo, sans-serif" font-size="14" font-weight="500" fill="#8b95a1" text-anchor="start"><tspan x="56" dy="0">모임, 지역, 운동 종목을 검색해보세요</tspan></text>
<rect x="290" y="34" width="58" height="34" rx="14" fill="#ffffff" stroke="#e5e7eb"/>
<text x="319" y="56" font-family="Pretendard, Apple SD Gothic Neo, sans-serif" font-size="14" font-weight="700" fill="#111827" text-anchor="middle"><tspan x="319" dy="0">로그인</tspan></text>
<rect x="356" y="34" width="58" height="34" rx="14" fill="url(#primaryButton)" stroke="#2563eb"/>
<text x="385" y="56" font-family="Pretendard, Apple SD Gothic Neo, sans-serif" font-size="14" font-weight="700" fill="#fff" text-anchor="middle"><tspan x="385" dy="0">가입</tspan></text>
<text x="16" y="186" font-family="Pretendard, Apple SD Gothic Neo, sans-serif" font-size="28" font-weight="800" fill="#111827" text-anchor="start"><tspan x="16" dy="0">신청자 관리</tspan></text>
<rect x="16" y="214" width="398" height="92" rx="18" fill="#fff" stroke="#e5e7eb"/>
<text x="34" y="248" font-family="Pretendard, Apple SD Gothic Neo, sans-serif" font-size="18" font-weight="800" fill="#111827" text-anchor="start"><tspan x="34" dy="0">야당역 5km 러닝 크루 모집</tspan></text>
<text x="34" y="276" font-family="Pretendard, Apple SD Gothic Neo, sans-serif" font-size="13" font-weight="500" fill="#6b7280" text-anchor="start"><tspan x="34" dy="0">2026.05.16 · 야당역 2번 출구</tspan></text>
<rect x="16" y="322" width="398" height="440" rx="18" fill="#fff" stroke="#e5e7eb"/>
<text x="34" y="358" font-family="Pretendard, Apple SD Gothic Neo, sans-serif" font-size="18" font-weight="800" fill="#111827" text-anchor="start"><tspan x="34" dy="0">신청자 목록</tspan></text>
<rect x="34" y="386" width="362" height="96" rx="16" fill="#f9fafb" stroke="#e5e7eb"/>
<text x="52" y="414" font-family="Pretendard, Apple SD Gothic Neo, sans-serif" font-size="15" font-weight="700" fill="#111827" text-anchor="start"><tspan x="52" dy="0">헬린이탈출</tspan></text>
<text x="52" y="440" font-family="Pretendard, Apple SD Gothic Neo, sans-serif" font-size="13" font-weight="500" fill="#6b7280" text-anchor="start"><tspan x="52" dy="0">초보도 함께 뛰기 괜찮을까요?</tspan></text>
<rect x="240" y="436" width="64" height="32" rx="14" fill="url(#primaryButton)" stroke="#2563eb"/>
<text x="272" y="457" font-family="Pretendard, Apple SD Gothic Neo, sans-serif" font-size="14" font-weight="700" fill="#fff" text-anchor="middle"><tspan x="272" dy="0">승인</tspan></text>
<rect x="312" y="436" width="64" height="32" rx="14" fill="#ffffff" stroke="#e5e7eb"/>
<text x="344" y="457" font-family="Pretendard, Apple SD Gothic Neo, sans-serif" font-size="14" font-weight="700" fill="#111827" text-anchor="middle"><tspan x="344" dy="0">거절</tspan></text>
<rect x="34" y="504" width="362" height="96" rx="16" fill="#f9fafb" stroke="#e5e7eb"/>
<text x="52" y="532" font-family="Pretendard, Apple SD Gothic Neo, sans-serif" font-size="15" font-weight="700" fill="#111827" text-anchor="start"><tspan x="52" dy="0">배드민턴민지</tspan></text>
<text x="52" y="558" font-family="Pretendard, Apple SD Gothic Neo, sans-serif" font-size="13" font-weight="500" fill="#6b7280" text-anchor="start"><tspan x="52" dy="0">운동은 가볍게 즐기는 편입니다.</tspan></text>
<rect x="240" y="554" width="64" height="32" rx="14" fill="url(#primaryButton)" stroke="#2563eb"/>
<text x="272" y="575" font-family="Pretendard, Apple SD Gothic Neo, sans-serif" font-size="14" font-weight="700" fill="#fff" text-anchor="middle"><tspan x="272" dy="0">승인</tspan></text>
<rect x="312" y="554" width="64" height="32" rx="14" fill="#ffffff" stroke="#e5e7eb"/>
<text x="344" y="575" font-family="Pretendard, Apple SD Gothic Neo, sans-serif" font-size="14" font-weight="700" fill="#111827" text-anchor="middle"><tspan x="344" dy="0">거절</tspan></text>
<rect x="34" y="622" width="362" height="96" rx="16" fill="#f9fafb" stroke="#e5e7eb"/>
<text x="52" y="650" font-family="Pretendard, Apple SD Gothic Neo, sans-serif" font-size="15" font-weight="700" fill="#111827" text-anchor="start"><tspan x="52" dy="0">런린이철수</tspan></text>
<text x="52" y="676" font-family="Pretendard, Apple SD Gothic Neo, sans-serif" font-size="13" font-weight="500" fill="#6b7280" text-anchor="start"><tspan x="52" dy="0">퇴근 후 참여 가능합니다.</tspan></text>
<rect x="240" y="672" width="64" height="32" rx="14" fill="url(#primaryButton)" stroke="#2563eb"/>
<text x="272" y="693" font-family="Pretendard, Apple SD Gothic Neo, sans-serif" font-size="14" font-weight="700" fill="#fff" text-anchor="middle"><tspan x="272" dy="0">승인</tspan></text>
<rect x="312" y="672" width="64" height="32" rx="14" fill="#ffffff" stroke="#e5e7eb"/>
<text x="344" y="693" font-family="Pretendard, Apple SD Gothic Neo, sans-serif" font-size="14" font-weight="700" fill="#111827" text-anchor="middle"><tspan x="344" dy="0">거절</tspan></text>
<rect x="186" y="780" width="108" height="40" rx="14" fill="url(#primaryButton)" stroke="#2563eb"/>
<text x="240" y="805" font-family="Pretendard, Apple SD Gothic Neo, sans-serif" font-size="14" font-weight="700" fill="#fff" text-anchor="middle"><tspan x="240" dy="0">모집 완료</tspan></text>
<rect x="302" y="780" width="94" height="40" rx="14" fill="#ffffff" stroke="#e5e7eb"/>
<text x="349" y="805" font-family="Pretendard, Apple SD Gothic Neo, sans-serif" font-size="14" font-weight="700" fill="#111827" text-anchor="middle"><tspan x="349" dy="0">상세로</tspan></text>
</svg>